<svg xmlns="http://www.w3.org/2000/svg" viewBox="0 0 32 32" width="32" height="32">
  <!-- Background circle with gradient -->
  <defs>
    <radialGradient id="bg" cx="50%" cy="30%" r="70%">
      <stop offset="0%" stop-color="#a7f3d0"/>
      <stop offset="100%" stop-color="#10b981"/>
    </radialGradient>
  </defs>
  <circle cx="16" cy="16" r="15" fill="url(#bg)" stroke="#059669" stroke-width="1"/>
  
  <!-- Simplified boy character -->
  <!-- Head -->
  <circle cx="16" cy="11" r="3.5" fill="#fbbf24"/>
  
  <!-- Hair -->
  <path d="M13 8 Q16 6.5 19 8 Q19 9.5 16 9 Q13 9.5 13 8" fill="#92400e"/>
  
  <!-- Eyes (dots) -->
  <circle cx="14.5" cy="10.5" r="0.6" fill="#374151"/>
  <circle cx="17.5" cy="10.5" r="0.6" fill="#374151"/>
  
  <!-- Smile -->
  <path d="M14.5 12 Q16 13 17.5 12" stroke="#374151" stroke-width="0.6" fill="none" stroke-linecap="round"/>
  
  <!-- Body (shirt) -->
  <ellipse cx="16" cy="18" rx="2.5" ry="3.5" fill="#ec4899"/>
  
  <!-- Arms -->
  <ellipse cx="12.5" cy="16.5" rx="1.2" ry="2" fill="#fbbf24" transform="rotate(-25 12.5 16.5)"/>
  <ellipse cx="19.5" cy="16.5" rx="1.2" ry="2" fill="#fbbf24" transform="rotate(35 19.5 16.5)"/>
  
  <!-- Paintbrush (key element) -->
  <line x1="20.5" y1="15" x2="23.5" y2="12" stroke="#92400e" stroke-width="1.2" stroke-linecap="round"/>
  <ellipse cx="23.8" cy="11.7" rx="1.2" ry="0.8" fill="#22c55e" transform="rotate(45 23.8 11.7)"/>
  
  <!-- Legs -->
  <ellipse cx="14.5" cy="23" rx="0.8" ry="2.5" fill="#3b82f6"/>
  <ellipse cx="17.5" cy="23" rx="0.8" ry="2.5" fill="#3b82f6"/>
  
  <!-- Small decorative leaf -->
  <path d="M7 9 Q8.5 7.5 10 9 Q8.5 10.5 7 9" fill="#16a34a"/>
  <line x1="8.5" y1="9" x2="8.5" y2="11" stroke="#16a34a" stroke-width="0.5"/>
</svg>
